<?xml version="1.0" encoding="UTF-8"?>
<svg xmlns="http://www.w3.org/2000/svg" xmlns:xlink="http://www.w3.org/1999/xlink" width="339px" height="226px" viewBox="0 0 339 226" version="1.1">
<g id="surface1">
<path style=" stroke:none;fill-rule:nonzero;fill:rgb(100%,100%,100%);fill-opacity:1;" d="M 29.535156 1.191406 L 309.476562 1.191406 C 324.832031 1.191406 337.824219 14.140625 337.824219 29.441406 L 337.824219 196.589844 C 337.824219 211.890625 324.832031 224.839844 309.476562 224.839844 L 29.535156 224.839844 C 14.179688 224.839844 1.1875 211.890625 1.1875 196.589844 L 1.1875 29.441406 C 1.1875 14.140625 14.179688 1.191406 29.535156 1.191406 Z M 29.535156 1.191406 "/>
<path style=" stroke:none;fill-rule:nonzero;fill:rgb(14.117647%,43.137255%,66.27451%);fill-opacity:1;" d="M 142.484375 91.816406 L 120.765625 91.816406 L 120.765625 83.621094 L 141.953125 83.621094 L 141.953125 75.148438 L 120.765625 75.148438 L 120.765625 67.800781 L 142.484375 67.800781 L 142.484375 59.046875 L 111.496094 59.046875 L 111.496094 100.570312 L 142.484375 100.570312 Z M 142.484375 91.816406 "/>
<path style=" stroke:none;fill-rule:nonzero;fill:rgb(14.117647%,43.137255%,66.27451%);fill-opacity:1;" d="M 95.074219 100.570312 L 104.34375 100.570312 L 104.34375 59.046875 L 88.984375 59.046875 L 77.859375 87.296875 L 65.679688 59.046875 L 50.582031 59.046875 L 50.582031 98.3125 L 34.691406 59.046875 L 20.917969 59.046875 L 4.234375 100.570312 L 14.296875 100.570312 L 18.007812 91.25 L 37.339844 91.25 L 41.046875 100.570312 L 59.851562 100.570312 L 59.851562 68.085938 L 73.359375 100.570312 L 81.570312 100.570312 L 95.074219 68.085938 Z M 21.183594 82.492188 L 27.539062 65.824219 L 33.898438 82.492188 Z M 21.183594 82.492188 "/>
<path style=" stroke:none;fill-rule:nonzero;fill:rgb(14.117647%,43.137255%,66.27451%);fill-opacity:1;" d="M 224.316406 100.570312 L 235.175781 100.570312 L 238.617188 91.25 L 257.6875 91.25 L 261.394531 100.570312 L 280.464844 100.570312 L 280.464844 69.496094 L 298.207031 100.570312 L 311.714844 100.570312 L 311.714844 59.046875 L 302.179688 59.046875 L 302.179688 87.859375 L 285.761719 59.046875 L 271.460938 59.046875 L 271.460938 98.59375 L 255.832031 59.328125 L 241.796875 59.328125 L 228.554688 92.097656 L 224.316406 92.097656 C 221.933594 92.097656 219.285156 91.53125 217.960938 89.835938 C 216.105469 87.578125 215.3125 84.46875 215.3125 79.949219 C 215.3125 75.710938 216.371094 72.324219 217.960938 70.628906 C 219.816406 68.648438 221.667969 68.085938 225.113281 68.085938 L 233.851562 68.085938 L 233.851562 59.328125 L 224.847656 59.328125 C 218.492188 59.328125 213.722656 60.738281 210.808594 64.128906 C 206.835938 68.367188 205.777344 74.019531 205.777344 80.234375 C 205.777344 87.859375 207.632812 92.378906 210.808594 96.054688 C 213.988281 99.441406 219.816406 100.570312 224.316406 100.570312 Z M 248.683594 65.824219 L 255.039062 82.492188 L 242.328125 82.492188 Z M 248.683594 65.824219 "/>
<path style=" stroke:none;fill-rule:nonzero;fill:rgb(14.117647%,43.137255%,66.27451%);fill-opacity:1;" d="M 158.105469 85.035156 L 168.171875 85.035156 C 171.613281 85.035156 173.730469 85.316406 175.054688 86.730469 C 176.910156 88.707031 176.644531 92.378906 176.644531 94.921875 L 176.644531 100.289062 L 185.914062 100.289062 L 185.914062 92.097656 C 185.914062 88.425781 185.648438 86.449219 184.324219 84.46875 C 183.53125 83.339844 181.941406 81.929688 179.824219 81.082031 C 182.207031 80.234375 186.445312 76.558594 186.445312 70.0625 C 186.445312 65.542969 184.589844 62.71875 181.675781 61.023438 C 178.5 59.328125 175.054688 59.046875 170.289062 59.046875 L 148.835938 59.046875 L 148.835938 100.007812 L 158.105469 100.007812 Z M 158.371094 67.519531 L 169.757812 67.519531 C 171.347656 67.519531 173.203125 67.519531 174.261719 68.367188 C 175.585938 68.933594 176.117188 70.34375 176.117188 72.039062 C 176.117188 74.019531 175.320312 75.429688 174.261719 75.996094 C 172.9375 76.84375 171.347656 76.84375 169.757812 76.84375 L 158.371094 76.84375 Z M 158.371094 67.519531 "/>
<path style=" stroke:none;fill-rule:nonzero;fill:rgb(14.117647%,43.137255%,66.27451%);fill-opacity:1;" d="M 287.351562 146.335938 L 282.316406 146.335938 C 280.730469 146.335938 279.667969 146.054688 278.609375 145.773438 C 277.285156 145.207031 276.492188 144.359375 276.492188 142.664062 C 276.492188 141.253906 276.757812 140.121094 277.816406 139.558594 C 278.609375 138.710938 279.667969 138.710938 281.523438 138.710938 L 298.472656 138.710938 L 298.472656 129.953125 L 279.933594 129.953125 C 270.136719 129.953125 266.691406 136.449219 266.691406 142.382812 C 266.691406 155.660156 277.550781 155.09375 286.289062 155.378906 C 288.144531 155.378906 288.9375 155.660156 289.734375 156.226562 C 290.261719 156.789062 290.792969 157.921875 290.792969 159.050781 C 290.792969 160.460938 290.261719 161.308594 289.734375 161.875 C 288.9375 162.722656 287.878906 163.003906 286.027344 163.003906 L 268.015625 163.003906 L 268.015625 171.761719 L 286.289062 171.761719 C 295.558594 171.761719 300.855469 167.808594 300.855469 158.769531 C 300.855469 154.53125 299.796875 151.988281 297.945312 150.011719 C 295.824219 147.75 292.648438 146.902344 287.351562 146.335938 Z M 287.351562 146.335938 "/>
<path style=" stroke:none;fill-rule:nonzero;fill:rgb(14.117647%,43.137255%,66.27451%);fill-opacity:1;" d="M 299.269531 0 L 38.664062 0 C 17.476562 0 -4.246094 13.039062 -0.00390625 41.246094 L -0.00390625 174.585938 C -0.00390625 202.835938 -0.00390625 226 48.199219 226 L 292.382812 226 C 335.554688 226 338.996094 203.683594 338.996094 176.28125 L 338.996094 42.375 C 338.996094 18.925781 330.515625 0 299.269531 0 Z M 66.472656 101.699219 L 66.472656 108.761719 L 34.957031 108.761719 L 31.515625 99.441406 L 23.570312 99.441406 L 19.859375 108.761719 L -0.00390625 108.761719 L -0.0078125 86.921875 L 15.09375 50.851562 L 39.460938 50.851562 L 42.636719 57.628906 L 42.636719 50.851562 L 71.238281 50.851562 L 77.332031 65.824219 L 83.421875 50.851562 L 173.734375 50.851562 C 177.972656 50.851562 181.679688 51.699219 184.328125 54.238281 L 184.328125 50.851562 L 208.957031 50.851562 L 208.957031 54.238281 C 213.195312 51.699219 218.492188 50.851562 224.585938 50.851562 L 260.339844 50.851562 L 263.78125 57.628906 L 263.78125 50.851562 L 290.265625 50.851562 L 293.972656 57.628906 L 293.972656 50.851562 L 319.929688 50.851562 L 319.929688 108.761719 L 293.707031 108.761719 L 288.675781 100.003906 L 288.675781 108.761719 L 256.101562 108.761719 L 252.65625 99.441406 L 244.710938 99.441406 L 241.003906 108.761719 L 224.054688 108.761719 C 217.433594 108.761719 212.402344 107.066406 209.222656 105.089844 L 209.222656 108.761719 L 168.96875 108.761719 L 168.96875 95.484375 C 168.96875 93.789062 168.703125 93.507812 167.644531 93.507812 L 166.054688 93.507812 L 166.054688 108.761719 L 88.191406 108.761719 L 88.191406 101.699219 L 85.542969 108.761719 L 69.386719 108.761719 Z M 338.019531 176.5625 C 331.621094 180.234375 326.8125 180.234375 321.78125 180.234375 L 297.679688 180.234375 L 297.679688 176.5625 C 294.769531 178.824219 289.734375 180.234375 284.96875 180.234375 L 208.957031 180.234375 L 208.957031 166.957031 C 208.957031 165.261719 208.957031 165.261719 207.371094 165.261719 L 206.046875 165.261719 L 206.046875 180.234375 L 180.886719 180.234375 L 180.886719 164.699219 C 176.648438 166.675781 171.878906 166.675781 167.90625 166.675781 L 164.996094 166.675781 L 164.996094 180.234375 L 134.539062 180.234375 L 127.121094 171.195312 L 119.175781 180.234375 L 69.917969 180.234375 L 69.917969 122.324219 L 120.234375 122.324219 L 127.386719 131.078125 L 135.066406 121.757812 L 168.4375 121.757812 C 172.410156 121.757812 178.765625 122.324219 181.679688 125.148438 L 181.679688 121.757812 L 211.871094 121.757812 C 214.519531 121.757812 220.613281 122.324219 224.320312 125.148438 L 224.320312 121.757812 L 269.871094 121.757812 L 269.871094 125.148438 C 272.257812 122.886719 277.023438 121.757812 280.996094 121.757812 L 306.421875 121.757812 L 306.421875 125.148438 C 309.070312 123.171875 312.777344 121.757812 318.074219 121.757812 L 338.992188 121.757812 L 338.992188 129.949219 L 316.75 129.949219 C 307.214844 129.949219 303.507812 136.449219 303.507812 142.378906 C 303.507812 155.65625 314.367188 155.09375 323.105469 155.375 C 324.695312 155.375 325.488281 155.65625 326.285156 156.222656 C 326.8125 156.789062 327.34375 157.917969 327.34375 159.046875 C 327.34375 160.460938 326.8125 161.308594 326.285156 161.871094 C 325.488281 162.71875 324.429688 163.003906 322.578125 163.003906 L 304.566406 163.003906 L 304.566406 172.042969 L 322.578125 172.042969 C 328.667969 172.042969 332.90625 170.347656 335.289062 166.675781 L 337.078125 164.699219 Z M 338.992188 139.273438 L 337.078125 153.542969 C 336.8125 152.976562 334.757812 150.574219 334.496094 150.289062 C 332.375 148.03125 328.933594 147.183594 323.902344 146.898438 L 318.867188 146.898438 C 317.542969 146.898438 316.484375 146.617188 315.425781 146.335938 C 314.101562 145.769531 313.308594 144.921875 313.308594 143.226562 C 313.308594 141.816406 313.570312 140.683594 314.632812 140.121094 C 315.425781 139.273438 316.75 139.273438 318.339844 139.273438 Z M 338.992188 139.273438 "/>
<path style=" stroke:none;fill-rule:nonzero;fill:rgb(14.117647%,43.137255%,66.27451%);fill-opacity:1;" d="M 231.460938 172.328125 L 262.449219 172.328125 L 262.449219 163.570312 L 240.730469 163.570312 L 240.730469 155.378906 L 261.917969 155.378906 L 261.917969 146.902344 L 240.730469 146.902344 L 240.730469 139.277344 L 262.449219 139.277344 L 262.449219 130.519531 L 231.460938 130.519531 Z M 231.460938 172.328125 "/>
<path style=" stroke:none;fill-rule:nonzero;fill:rgb(14.117647%,43.137255%,66.27451%);fill-opacity:1;" d="M 168.703125 130.519531 L 139.039062 130.519531 L 127.121094 144.078125 L 115.734375 130.519531 L 78.390625 130.519531 L 78.390625 171.761719 L 115.203125 171.761719 L 127.121094 157.921875 L 138.511719 171.761719 L 156.519531 171.761719 L 156.519531 157.921875 L 168.171875 157.921875 C 176.382812 157.921875 184.328125 155.660156 184.328125 144.078125 C 184.328125 132.777344 176.117188 130.519531 168.703125 130.519531 Z M 110.4375 163.289062 L 87.660156 163.289062 L 87.660156 155.097656 L 108.054688 155.097656 L 108.054688 146.621094 L 87.660156 146.621094 L 87.660156 138.992188 L 110.964844 138.992188 L 121.03125 151.140625 Z M 147.25 168.375 L 132.949219 151.421875 L 147.25 135.039062 Z M 168.703125 149.730469 L 156.519531 149.730469 L 156.519531 139.277344 L 168.703125 139.277344 C 172.144531 139.277344 174.265625 140.6875 174.265625 144.359375 C 174.527344 147.75 172.144531 149.730469 168.703125 149.730469 Z M 168.703125 149.730469 "/>
<path style=" stroke:none;fill-rule:nonzero;fill:rgb(14.117647%,43.137255%,66.27451%);fill-opacity:1;" d="M 226.167969 141.820312 C 226.167969 137.015625 224.3125 134.472656 221.402344 132.496094 C 218.488281 130.800781 215.042969 130.519531 210.277344 130.519531 L 188.824219 130.519531 L 188.824219 171.761719 L 198.09375 171.761719 L 198.09375 156.507812 L 208.160156 156.507812 C 211.601562 156.507812 213.71875 157.074219 215.042969 158.484375 C 216.898438 160.464844 216.632812 164.136719 216.632812 166.679688 L 216.632812 171.761719 L 225.902344 171.761719 L 225.902344 163.570312 C 225.902344 159.898438 225.636719 157.921875 224.3125 155.945312 C 223.519531 154.8125 221.929688 153.402344 219.8125 152.554688 C 222.195312 151.707031 226.167969 148.316406 226.167969 141.820312 Z M 213.984375 147.46875 C 212.660156 148.316406 211.070312 148.316406 209.484375 148.316406 L 198.09375 148.316406 L 198.09375 138.992188 L 209.484375 138.992188 C 211.070312 138.992188 212.925781 138.992188 213.984375 139.839844 C 215.308594 140.40625 215.839844 141.820312 215.839844 143.511719 C 216.105469 145.207031 215.308594 146.621094 213.984375 147.46875 Z M 213.984375 147.46875 "/>
<path style=" stroke:none;fill-rule:nonzero;fill:rgb(14.117647%,43.137255%,66.27451%);fill-opacity:1;" d="M 201.269531 59.046875 L 191.734375 59.046875 L 191.734375 100.570312 L 201.269531 100.570312 Z M 201.269531 59.046875 "/>
<path style=" stroke:none;fill-rule:nonzero;fill:rgb(76.862745%,76.862745%,76.862745%);fill-opacity:1;" d="M 309.46875 226 L 29.53125 226 C 12.992188 226 0 213.050781 0 196.574219 L 0 29.425781 C 0 12.949219 12.992188 0 29.53125 0 L 309.46875 0 C 326.007812 0 339 12.949219 339 29.425781 L 339 196.574219 C 339 213.050781 326.007812 226 309.46875 226 Z M 29.53125 2.355469 C 14.175781 2.355469 2.363281 14.125 2.363281 29.425781 L 2.363281 196.574219 C 2.363281 211.875 14.175781 223.644531 29.53125 223.644531 L 309.46875 223.644531 C 324.824219 223.644531 336.636719 211.875 336.636719 196.574219 L 336.636719 29.425781 C 336.636719 14.125 324.824219 2.355469 309.46875 2.355469 Z M 29.53125 2.355469 "/>
</g>
</svg>
