<?xml version="1.0" encoding="UTF-8"?>
<svg xmlns="http://www.w3.org/2000/svg" xmlns:xlink="http://www.w3.org/1999/xlink" width="40px" height="26px" viewBox="0 0 39 26" version="1.1">
<g id="surface1">
<path style=" stroke:none;fill-rule:nonzero;fill:rgb(100%,100%,100%);fill-opacity:1;" d="M 3.652344 0.136719 L 35.203125 0.136719 C 36.933594 0.136719 38.394531 1.625 38.394531 3.386719 L 38.394531 22.617188 C 38.394531 24.375 36.933594 25.867188 35.203125 25.867188 L 3.652344 25.867188 C 1.921875 25.867188 0.457031 24.375 0.457031 22.617188 L 0.457031 3.386719 C 0.457031 1.625 1.921875 0.136719 3.652344 0.136719 Z M 3.652344 0.136719 "/>
<path style=" stroke:none;fill-rule:nonzero;fill:rgb(0%,0%,0%);fill-opacity:1;" d="M 14.714844 15.066406 C 14.015625 15.9375 13.0625 16.371094 11.863281 16.371094 C 11.402344 16.371094 10.964844 16.292969 10.546875 16.136719 C 10.132812 15.976562 9.765625 15.75 9.449219 15.453125 C 9.132812 15.15625 8.886719 14.796875 8.707031 14.378906 C 8.53125 13.957031 8.441406 13.5 8.441406 13 C 8.441406 12.367188 8.585938 11.796875 8.871094 11.289062 C 9.15625 10.777344 9.546875 10.378906 10.042969 10.09375 C 10.539062 9.804688 11.085938 9.664062 11.6875 9.664062 C 12.230469 9.664062 12.757812 9.777344 13.257812 10.011719 C 13.761719 10.238281 14.214844 10.5625 14.621094 10.976562 L 13.957031 11.566406 C 13.613281 11.261719 13.257812 11.023438 12.894531 10.855469 C 12.535156 10.6875 12.148438 10.601562 11.734375 10.601562 C 11.289062 10.601562 10.878906 10.703125 10.511719 10.902344 C 10.140625 11.101562 9.851562 11.390625 9.636719 11.761719 C 9.421875 12.128906 9.3125 12.546875 9.3125 13.015625 C 9.3125 13.515625 9.433594 13.949219 9.671875 14.3125 C 9.910156 14.675781 10.230469 14.953125 10.628906 15.144531 C 11.03125 15.332031 11.460938 15.429688 11.921875 15.429688 C 12.15625 15.429688 12.371094 15.410156 12.5625 15.371094 C 12.753906 15.328125 12.945312 15.261719 13.125 15.171875 C 13.3125 15.082031 13.484375 14.972656 13.644531 14.847656 C 13.804688 14.71875 13.96875 14.570312 14.128906 14.398438 Z M 14.714844 15.066406 "/>
<path style=" stroke:none;fill-rule:nonzero;fill:rgb(0%,0%,0%);fill-opacity:1;" d="M 22.566406 13.023438 C 22.566406 13.484375 22.476562 13.917969 22.304688 14.332031 C 22.128906 14.746094 21.890625 15.101562 21.585938 15.40625 C 21.28125 15.710938 20.929688 15.949219 20.53125 16.117188 C 20.132812 16.285156 19.71875 16.371094 19.289062 16.371094 C 18.6875 16.371094 18.136719 16.21875 17.632812 15.914062 C 17.132812 15.605469 16.738281 15.191406 16.449219 14.667969 C 16.164062 14.140625 16.019531 13.5625 16.019531 12.925781 C 16.019531 12.3125 16.171875 11.757812 16.472656 11.253906 C 16.773438 10.75 17.175781 10.351562 17.675781 10.066406 C 18.179688 9.773438 18.722656 9.628906 19.296875 9.628906 C 19.886719 9.628906 20.433594 9.777344 20.933594 10.078125 C 21.433594 10.375 21.832031 10.789062 22.125 11.3125 C 22.417969 11.835938 22.566406 12.40625 22.566406 13.023438 Z M 21.6875 12.976562 C 21.6875 12.515625 21.578125 12.105469 21.359375 11.738281 C 21.144531 11.375 20.855469 11.085938 20.488281 10.882812 C 20.121094 10.675781 19.722656 10.570312 19.289062 10.570312 C 18.847656 10.570312 18.441406 10.675781 18.074219 10.886719 C 17.707031 11.09375 17.417969 11.386719 17.207031 11.765625 C 16.996094 12.140625 16.894531 12.5625 16.894531 13.035156 C 16.894531 13.480469 17.003906 13.886719 17.222656 14.253906 C 17.445312 14.621094 17.742188 14.910156 18.113281 15.117188 C 18.488281 15.324219 18.878906 15.429688 19.296875 15.429688 C 19.621094 15.429688 19.925781 15.367188 20.214844 15.242188 C 20.503906 15.121094 20.757812 14.945312 20.980469 14.71875 C 21.207031 14.492188 21.378906 14.230469 21.503906 13.933594 C 21.625 13.636719 21.6875 13.316406 21.6875 12.976562 Z M 21.6875 12.976562 "/>
<path style=" stroke:none;fill-rule:nonzero;fill:rgb(0%,0%,0%);fill-opacity:1;" d="M 30.410156 12.992188 C 30.410156 13.429688 30.328125 13.859375 30.164062 14.277344 C 30.003906 14.691406 29.785156 15.054688 29.503906 15.367188 C 29.238281 15.671875 28.949219 15.890625 28.644531 16.023438 C 28.339844 16.152344 27.980469 16.214844 27.566406 16.214844 L 24.605469 16.214844 L 24.605469 9.816406 L 27.542969 9.816406 C 27.949219 9.816406 28.332031 9.898438 28.679688 10.066406 C 29.03125 10.230469 29.335938 10.457031 29.59375 10.75 C 29.851562 11.042969 30.054688 11.378906 30.195312 11.769531 C 30.335938 12.152344 30.410156 12.5625 30.410156 12.992188 Z M 29.511719 13.058594 C 29.511719 12.75 29.46875 12.457031 29.382812 12.175781 C 29.292969 11.890625 29.164062 11.640625 28.996094 11.429688 C 28.828125 11.21875 28.621094 11.050781 28.375 10.929688 C 28.128906 10.8125 27.855469 10.75 27.550781 10.75 L 25.476562 10.75 L 25.476562 15.28125 L 27.566406 15.28125 C 27.949219 15.28125 28.289062 15.179688 28.585938 14.980469 C 28.878906 14.777344 29.109375 14.503906 29.269531 14.167969 C 29.433594 13.828125 29.511719 13.457031 29.511719 13.058594 Z M 29.511719 13.058594 "/>
<path style=" stroke:none;fill-rule:nonzero;fill:rgb(76.862745%,76.862745%,76.862745%);fill-opacity:1;" d="M 35.199219 26 L 3.652344 26 C 1.789062 26 0.324219 24.511719 0.324219 22.613281 L 0.324219 3.386719 C 0.324219 1.488281 1.789062 0 3.652344 0 L 35.199219 0 C 36.929688 0 38.527344 1.488281 38.527344 3.386719 L 38.527344 22.613281 C 38.527344 24.511719 36.929688 26 35.199219 26 Z M 3.652344 0.269531 C 1.921875 0.269531 0.589844 1.625 0.589844 3.386719 L 0.589844 22.613281 C 0.589844 24.375 1.921875 25.730469 3.652344 25.730469 L 35.199219 25.730469 C 36.929688 25.730469 38.261719 24.375 38.261719 22.613281 L 38.261719 3.386719 C 38.261719 1.625 36.929688 0.269531 35.199219 0.269531 Z M 3.652344 0.269531 "/>
</g>
</svg>
