<?xml version="1.0" encoding="UTF-8"?>
<svg xmlns="http://www.w3.org/2000/svg" xmlns:xlink="http://www.w3.org/1999/xlink" width="40px" height="27px" viewBox="0 0 40 27" version="1.1">
<g id="surface1">
<path style=" stroke:none;fill-rule:nonzero;fill:rgb(94.901961%,94.117647%,92.156863%);fill-opacity:1;" d="M 3.484375 0.140625 L 36.515625 0.140625 C 38.328125 0.140625 39.859375 1.6875 39.859375 3.515625 L 39.859375 23.484375 C 39.859375 25.3125 38.328125 26.859375 36.515625 26.859375 L 3.484375 26.859375 C 1.671875 26.859375 0.140625 25.3125 0.140625 23.484375 L 0.140625 3.515625 C 0.140625 1.6875 1.671875 0.140625 3.484375 0.140625 Z M 3.484375 0.140625 "/>
<path style=" stroke:none;fill-rule:nonzero;fill:rgb(94.509804%,38.431373%,13.72549%);fill-opacity:1;" d="M 24.136719 6.539062 L 15.714844 6.539062 L 15.714844 20.605469 L 24.136719 20.605469 Z M 24.136719 6.539062 "/>
<path style=" stroke:none;fill-rule:nonzero;fill:rgb(90.980392%,12.941176%,15.686275%);fill-opacity:1;" d="M 16.699219 13.503906 C 16.699219 10.804688 17.964844 8.246094 20.070312 6.542969 C 16.421875 3.699219 11.226562 4.125 8.140625 7.535156 C 5.050781 10.949219 5.050781 16.207031 8.140625 19.617188 C 11.226562 23.027344 16.421875 23.453125 20.070312 20.609375 C 17.824219 18.761719 16.699219 16.207031 16.699219 13.503906 Z M 16.699219 13.503906 "/>
<path style=" stroke:none;fill-rule:nonzero;fill:rgb(95.686275%,61.568627%,12.54902%);fill-opacity:1;" d="M 33.402344 19.046875 L 33.402344 18.761719 L 33.542969 18.761719 L 33.261719 18.761719 L 33.402344 18.761719 Z M 33.964844 19.046875 L 33.964844 18.761719 L 33.824219 18.761719 L 33.683594 19.046875 L 33.542969 18.761719 L 33.402344 18.761719 L 33.402344 19.046875 L 33.402344 18.761719 L 33.542969 19.046875 L 33.683594 18.761719 Z M 33.964844 19.046875 "/>
<path style=" stroke:none;fill-rule:nonzero;fill:rgb(95.686275%,61.568627%,12.54902%);fill-opacity:1;" d="M 34.246094 13.5 C 34.246094 16.910156 32.28125 20.039062 29.335938 21.601562 C 26.246094 23.164062 22.738281 22.738281 20.070312 20.605469 C 23.859375 17.621094 24.5625 11.9375 21.617188 8.101562 C 21.195312 7.53125 20.632812 6.964844 20.070312 6.539062 C 22.738281 4.40625 26.386719 3.980469 29.335938 5.542969 C 32.28125 6.964844 34.246094 10.089844 34.246094 13.5 Z M 34.246094 13.5 "/>
<path style=" stroke:none;fill-rule:nonzero;fill:rgb(76.862745%,76.862745%,76.862745%);fill-opacity:1;" d="M 36.515625 27 L 3.484375 27 C 1.53125 27 0 25.453125 0 23.484375 L 0 3.515625 C 0 1.546875 1.53125 0 3.484375 0 L 36.515625 0 C 38.46875 0 40 1.546875 40 3.515625 L 40 23.484375 C 40 25.453125 38.46875 27 36.515625 27 Z M 3.484375 0.28125 C 1.671875 0.28125 0.277344 1.6875 0.277344 3.515625 L 0.277344 23.484375 C 0.277344 25.3125 1.671875 26.71875 3.484375 26.71875 L 36.515625 26.71875 C 38.328125 26.71875 39.722656 25.3125 39.722656 23.484375 L 39.722656 3.515625 C 39.722656 1.6875 38.328125 0.28125 36.515625 0.28125 Z M 3.484375 0.28125 "/>
</g>
</svg>
