<?xml version="1.0" encoding="UTF-8"?>
<svg xmlns="http://www.w3.org/2000/svg" xmlns:xlink="http://www.w3.org/1999/xlink" width="39px" height="26px" viewBox="0 0 39 26" version="1.1">
<g id="surface1">
<path style=" stroke:none;fill-rule:nonzero;fill:rgb(16.470588%,17.254902%,41.960784%);fill-opacity:1;" d="M 3.398438 0.136719 L 35.601562 0.136719 C 37.371094 0.136719 38.863281 1.625 38.863281 3.386719 L 38.863281 22.617188 C 38.863281 24.375 37.371094 25.867188 35.601562 25.867188 L 3.398438 25.867188 C 1.632812 25.867188 0.136719 24.375 0.136719 22.617188 L 0.136719 3.386719 C 0.136719 1.625 1.632812 0.136719 3.398438 0.136719 Z M 3.398438 0.136719 "/>
<path style=" stroke:none;fill-rule:nonzero;fill:rgb(76.862745%,76.862745%,76.862745%);fill-opacity:1;" d="M 35.601562 26 L 3.398438 26 C 1.496094 26 0 24.511719 0 22.613281 L 0 3.386719 C 0 1.488281 1.496094 0 3.398438 0 L 35.601562 0 C 37.503906 0 39 1.488281 39 3.386719 L 39 22.613281 C 39 24.511719 37.503906 26 35.601562 26 Z M 3.398438 0.269531 C 1.628906 0.269531 0.273438 1.625 0.273438 3.386719 L 0.273438 22.613281 C 0.273438 24.375 1.628906 25.730469 3.398438 25.730469 L 35.601562 25.730469 C 37.371094 25.730469 38.726562 24.375 38.726562 22.613281 L 38.726562 3.386719 C 38.726562 1.625 37.371094 0.269531 35.601562 0.269531 Z M 3.398438 0.269531 "/>
<path style=" stroke:none;fill-rule:nonzero;fill:rgb(100%,100%,100%);fill-opacity:1;" d="M 19.433594 9.3125 L 17.792969 16.835938 L 15.875 16.835938 L 17.519531 9.3125 Z M 27.507812 14.101562 L 28.464844 11.226562 L 29.011719 14.101562 Z M 29.695312 16.835938 L 31.476562 16.835938 L 29.96875 9.3125 L 28.328125 9.3125 C 27.917969 9.3125 27.644531 9.585938 27.507812 9.859375 L 24.632812 16.835938 L 26.6875 16.835938 L 27.097656 15.742188 L 29.558594 15.742188 Z M 24.632812 14.375 C 24.632812 12.320312 21.898438 12.183594 21.898438 11.363281 C 21.898438 11.089844 22.171875 10.816406 22.71875 10.679688 C 23.402344 10.679688 24.085938 10.679688 24.632812 10.953125 L 24.90625 9.3125 C 24.359375 9.039062 23.675781 9.039062 23.128906 9.039062 C 21.210938 9.039062 19.84375 9.996094 19.84375 11.5 C 19.84375 12.59375 20.800781 13.144531 21.484375 13.554688 C 22.171875 13.964844 22.445312 14.101562 22.445312 14.511719 C 22.445312 15.058594 21.898438 15.195312 21.347656 15.195312 C 20.664062 15.195312 19.980469 15.058594 19.433594 14.648438 L 19.160156 16.425781 C 19.84375 16.699219 20.527344 16.835938 21.347656 16.835938 C 23.265625 16.835938 24.632812 15.878906 24.632812 14.375 Z M 16.695312 9.3125 L 13.550781 16.835938 L 11.496094 16.835938 L 9.855469 10.816406 C 9.855469 10.542969 9.71875 10.269531 9.445312 10.132812 C 8.898438 9.859375 8.210938 9.585938 7.527344 9.449219 L 7.527344 9.175781 L 10.8125 9.175781 C 11.222656 9.175781 11.632812 9.449219 11.769531 9.996094 L 12.589844 14.375 L 14.644531 9.3125 Z M 16.695312 9.3125 "/>
<path style=" stroke:none;fill-rule:nonzero;fill:rgb(96.862745%,71.372549%,0%);fill-opacity:1;" d="M 9.445312 10.121094 C 8.761719 9.847656 8.210938 9.574219 7.527344 9.4375 L 7.527344 9.164062 L 10.949219 9.164062 C 11.359375 9.164062 11.769531 9.4375 11.90625 9.984375 L 12.589844 14.089844 C 12.042969 11.628906 9.445312 10.121094 9.445312 10.121094 Z M 9.445312 10.121094 "/>
</g>
</svg>
